<svg xmlns="http://www.w3.org/2000/svg" width="227.91" height="141.177" viewBox="0 0 227.91 141.177">
  <g id="グループ_1531" data-name="グループ 1531" transform="translate(-96.749 -7971.333)">
    <g id="グループ_1522" data-name="グループ 1522" transform="translate(-20854.578 -789.667)">
      <g id="グループ_1520" data-name="グループ 1520" transform="translate(21016 8761)">
        <path id="パス_75478" data-name="パス 75478" d="M126.572,16.786A16.786,16.786,0,1,1,109.786,0a16.786,16.786,0,0,1,16.786,16.786" transform="translate(-26.571 0)" fill="#fff"/>
        <path id="パス_75479" data-name="パス 75479" d="M71.8,44.179a3.124,3.124,0,0,0-1.454,2.36,19.48,19.48,0,0,0,8.214,17.666,5.033,5.033,0,0,1,.024,8.239A19.5,19.5,0,0,0,70.676,91.72a5.021,5.021,0,0,1-5.793,5.825,19.5,19.5,0,0,0-19.232,8.017,5.033,5.033,0,0,1-8.238.024,19.5,19.5,0,0,0-19.277-7.909,5.021,5.021,0,0,1-5.825-5.793A19.493,19.493,0,0,0,4.295,72.652a5.033,5.033,0,0,1-.023-8.239,19.5,19.5,0,0,0,7.909-19.277,5.02,5.02,0,0,1,5.792-5.825,19.494,19.494,0,0,0,19.232-8.017,5.033,5.033,0,0,1,8.239-.023,19.479,19.479,0,0,0,17.838,8.1,2.469,2.469,0,0,0,2-1.444l.2-.44a2.733,2.733,0,0,0-.909-3.428A41.433,41.433,0,1,0,75.542,44.914,2.758,2.758,0,0,0,71.8,44.179Z" transform="translate(0 -7.714)" fill="#fff"/>
        <path id="パス_75480" data-name="パス 75480" d="M86.642,79.393A20.357,20.357,0,0,0,91.25,92.319a1.359,1.359,0,0,0,2.349-.526,17.323,17.323,0,0,1,7.81-10.429,2.5,2.5,0,0,0-.009-4.147,17.252,17.252,0,0,1-7.819-10.223,1.36,1.36,0,0,0-2.347-.507,20.355,20.355,0,0,0-4.592,12.907" transform="translate(-24.752 -18.858)" fill="#fff"/>
      </g>
    </g>
    <path id="パス_75513" data-name="パス 75513" d="M-86.182-.322A4.125,4.125,0,0,0-87.017.835q-.234.483-.4.483a1.887,1.887,0,0,1-.425-.117q-8.115-2.827-12.275-7.5,0,2.886.132,6.094.029.483.073,1.465.029.513.029.6,0,.205-.234.205h-1.538q-.234,0-.234-.205,0-.088.044-1.274.132-3.516.161-6.68-3.457,4.189-11.338,7.236a1.66,1.66,0,0,1-.454.146q-.205,0-.425-.483a3.825,3.825,0,0,0-.776-1.04,26.471,26.471,0,0,0,11.88-6.694H-106l-4.263.059A.207.207,0,0,1-110.5-7.1l.059-2.827v-4.321l-.059-2.827a.207.207,0,0,1,.234-.234l4.263.059h4.2v-2.622h-7.983l-3.867.059q-.249,0-.249-.234V-21.3q0-.234.249-.234l3.867.059h7.983v-.176a18.165,18.165,0,0,0-.22-3.311,12.457,12.457,0,0,1,1.992.161q.4.044.4.234a1.78,1.78,0,0,1-.19.6A9.756,9.756,0,0,0-100-21.592v.117h8.657l3.867-.059q.205,0,.205.234v1.245q0,.234-.205.234l-3.867-.059H-100v2.622h4.761l4.277-.059q.249,0,.249.234l-.059,2.827v4.321l.059,2.827q0,.234-.249.234l-4.277-.059h-3.809Q-94.473-2.593-86.182-.322ZM-92.51-8.364V-11.5H-100v3.135Zm0-4.541V-15.82H-100v2.915ZM-101.8-8.364V-11.5h-6.9v3.135Zm0-4.541V-15.82h-6.9v2.915Zm42.229,4.028a.207.207,0,0,1-.234.234L-63.948-8.7H-67.17v3.867l.059,3.662A2.7,2.7,0,0,1-67.888,1a2.7,2.7,0,0,1-1.216.513,14.793,14.793,0,0,1-2.183.117h-.586a1,1,0,0,1-.557-.088,1.335,1.335,0,0,1-.19-.513,3.848,3.848,0,0,0-.6-1.318,23.183,23.183,0,0,0,2.476.176A1.929,1.929,0,0,0-69.353-.5a1.412,1.412,0,0,0,.293-1V-8.7h-3.384l-4.116.059q-.264,0-.264-.234l.059-2.373V-14l-.059-2.373q0-.234.264-.234l4.116.059h8.5l4.146-.059a.207.207,0,0,1,.234.234L-59.626-14v2.754Zm-1.86-1.479V-14.9H-74.963v4.541Zm6.182-9.2q0,.234-.249.234l-3.955-.059H-76.677l-3.984.059a.207.207,0,0,1-.234-.234v-1.333a.207.207,0,0,1,.234-.234l3.984.059h7.412v-.776a14.852,14.852,0,0,0-.205-3.032,16.385,16.385,0,0,1,2.065.146q.366.059.366.249a1.813,1.813,0,0,1-.176.557,7.524,7.524,0,0,0-.161,2.08v.776h7.925l3.955-.059q.249,0,.249.234ZM-73.162-5.815q0,.205-.293.381a3.087,3.087,0,0,0-.791.85A18.08,18.08,0,0,1-79.314.059a1.346,1.346,0,0,1-.513.234q-.146,0-.439-.381a2.905,2.905,0,0,0-.967-.835,18.464,18.464,0,0,0,5.3-4.424,4.218,4.218,0,0,0,.85-1.729,10.7,10.7,0,0,1,1.655.864A.489.489,0,0,1-73.162-5.815Zm18.3,4.7a3.817,3.817,0,0,0-.894,1.055Q-56.008.4-56.184.4A.914.914,0,0,1-56.638.19a25.016,25.016,0,0,1-6.313-6.064.354.354,0,0,1-.088-.19q0-.088.264-.264l.747-.454a.709.709,0,0,1,.322-.146q.088,0,.19.146A19.768,19.768,0,0,0-54.866-1.113ZM-32.207,0h-2.461V-9.58H-45.537V0H-48V-21.006h2.461v9.214h10.869v-9.214h2.461Zm21.768,0h-2.725l-2.227-5.889H-24.3L-26.392,0h-2.739l8.057-21.006h2.549ZM-16.2-8.1l-3.3-8.95a8.57,8.57,0,0,1-.322-1.406h-.059a7.846,7.846,0,0,1-.337,1.406L-23.476-8.1ZM7.71,0H4.78L1.265-5.889a12.825,12.825,0,0,0-.937-1.4A5.344,5.344,0,0,0-.6-8.232a3.222,3.222,0,0,0-1.025-.535,4.216,4.216,0,0,0-1.238-.168H-4.888V0H-7.349V-21.006h6.27a8.935,8.935,0,0,1,2.542.344,5.686,5.686,0,0,1,2.021,1.047,4.867,4.867,0,0,1,1.34,1.75,5.8,5.8,0,0,1,.483,2.454,5.908,5.908,0,0,1-.33,2.014,5.26,5.26,0,0,1-.937,1.633A5.683,5.683,0,0,1,2.576-10.54,7.478,7.478,0,0,1,.65-9.756V-9.7a4.43,4.43,0,0,1,.916.535,5.038,5.038,0,0,1,.74.71,9.41,9.41,0,0,1,.7.93q.344.52.769,1.208Zm-12.6-18.779v7.617h3.34A5.065,5.065,0,0,0,.159-11.44a3.951,3.951,0,0,0,1.355-.8,3.62,3.62,0,0,0,.894-1.274,4.266,4.266,0,0,0,.322-1.692,3.293,3.293,0,0,0-1.091-2.629,4.688,4.688,0,0,0-3.157-.945Zm26.558,0H15.606V0H13.145V-18.779H7.095v-2.227H21.67Zm8.08-.205a28.129,28.129,0,0,1-5.522,8.628l-1.714-1.318a26.243,26.243,0,0,0,6.475-12.48l2.373.366q-.308,1.157-.864,2.813H40.9Q39.491-10.635,35.17-5.215a22.443,22.443,0,0,1-9.478,6.65L24.374-.176a20.776,20.776,0,0,0,9.609-7.1,26.961,26.961,0,0,0,4.219-11.7Zm16.7-4.087V-8.364H44.138V-23.071ZM45.6-.571q5.42-1.157,7.441-3.882,1.919-2.593,1.919-7.852V-23.247h2.314V-12q0,6.489-2.9,9.551-2.4,2.534-7.69,3.677ZM62.056-20.522H76.968v2.109H62.056ZM60.078-3.208H78.77v2.095H60.078ZM79.373-16.26l1.919-.835a40.987,40.987,0,0,1,2.49,6.533L81.8-9.785A36.6,36.6,0,0,0,79.373-16.26Zm5.669-1.289,1.89-.776a38.622,38.622,0,0,1,2.2,6.416l-1.963.835A30.5,30.5,0,0,0,85.042-17.549ZM82.7,0A15.2,15.2,0,0,0,90.74-6.606q2.212-3.794,2.607-11.06l2.2.469q-.615,7.544-3,11.7A14.157,14.157,0,0,1,88.953-1.3a21.885,21.885,0,0,1-4.966,2.827ZM102.09-18.984a28.129,28.129,0,0,1-5.522,8.628l-1.714-1.318a26.243,26.243,0,0,0,6.475-12.48l2.373.366q-.308,1.157-.864,2.813h10.4q-1.406,10.342-5.728,15.762a22.443,22.443,0,0,1-9.478,6.65L96.714-.176a20.776,20.776,0,0,0,9.609-7.1,26.961,26.961,0,0,0,4.219-11.7Z" transform="translate(211.422 8110.445)" fill="#fff"/>
  </g>
</svg>
