<svg xmlns="http://www.w3.org/2000/svg" xmlns:xlink="http://www.w3.org/1999/xlink" width="244.538" height="50" viewBox="0 0 244.538 50">
  <defs>
    <clipPath id="clip-path">
      <rect id="長方形_4978" data-name="長方形 4978" width="49.074" height="50" transform="translate(0 0)" fill="#e99ea8"/>
    </clipPath>
  </defs>
  <g id="グループ_1509" data-name="グループ 1509" transform="translate(-10006 145)">
    <path id="パス_75510" data-name="パス 75510" d="M24.475-.269a3.437,3.437,0,0,0-.7.964q-.2.4-.33.4A1.573,1.573,0,0,1,23.1,1q-6.763-2.356-10.229-6.25,0,2.4.11,5.078.024.4.061,1.221.024.427.024.5,0,.171-.2.171H11.584q-.2,0-.2-.171,0-.073.037-1.062.11-2.93.134-5.566Q8.679-1.587,2.112.952a1.383,1.383,0,0,1-.378.122q-.171,0-.354-.4A3.188,3.188,0,0,0,.732-.2a22.059,22.059,0,0,0,9.9-5.579H7.959l-3.552.049a.173.173,0,0,1-.2-.2L4.26-8.276v-3.6l-.049-2.356a.173.173,0,0,1,.2-.2l3.552.049h3.5v-2.185H4.81l-3.223.049q-.208,0-.208-.2v-1.038q0-.2.208-.2L4.81-17.9h6.653v-.146a15.138,15.138,0,0,0-.183-2.759,10.381,10.381,0,0,1,1.66.134q.33.037.33.2a1.484,1.484,0,0,1-.159.5,8.13,8.13,0,0,0-.146,1.978v.1h7.214l3.223-.049q.171,0,.171.2v1.038q0,.2-.171.2l-3.223-.049H12.964v2.185h3.967l3.564-.049q.208,0,.208.2l-.049,2.356v3.6L20.7-5.92q0,.2-.208.2l-3.564-.049H13.757A24.834,24.834,0,0,0,24.475-.269ZM19.2-6.97V-9.583H12.964V-6.97Zm0-3.784v-2.429H12.964v2.429ZM11.462-6.97V-9.583H5.713V-6.97Zm0-3.784v-2.429H5.713v2.429ZM46.653-7.4a.173.173,0,0,1-.2.2L43-7.251H40.318v3.223l.049,3.052A2.251,2.251,0,0,1,39.72.83a2.252,2.252,0,0,1-1.013.427,12.328,12.328,0,0,1-1.819.1H36.4a.83.83,0,0,1-.464-.073,1.112,1.112,0,0,1-.159-.427,3.206,3.206,0,0,0-.5-1.1A19.319,19.319,0,0,0,37.339-.1,1.607,1.607,0,0,0,38.5-.415a1.177,1.177,0,0,0,.244-.83V-7.251h-2.82l-3.43.049q-.22,0-.22-.2l.049-1.978V-11.67l-.049-1.978q0-.2.22-.2l3.43.049H43l3.455-.049a.173.173,0,0,1,.2.2L46.6-11.67v2.295ZM45.1-8.63v-3.784H33.824V-8.63ZM50.254-16.3q0,.2-.208.2l-3.3-.049H32.4l-3.32.049a.173.173,0,0,1-.2-.2v-1.111a.173.173,0,0,1,.2-.2l3.32.049h6.177V-18.2a12.376,12.376,0,0,0-.171-2.527,13.654,13.654,0,0,1,1.721.122q.305.049.305.208a1.51,1.51,0,0,1-.146.464,6.27,6.27,0,0,0-.134,1.733v.647h6.6l3.3-.049q.208,0,.208.2ZM35.325-4.846q0,.171-.244.317a2.573,2.573,0,0,0-.659.708A15.067,15.067,0,0,1,30.2.049a1.122,1.122,0,0,1-.427.2q-.122,0-.366-.317a2.421,2.421,0,0,0-.806-.7,15.386,15.386,0,0,0,4.419-3.687,3.515,3.515,0,0,0,.708-1.44,8.92,8.92,0,0,1,1.379.72A.407.407,0,0,1,35.325-4.846ZM50.572-.928a3.181,3.181,0,0,0-.745.879Q49.62.33,49.473.33a.762.762,0,0,1-.378-.171A20.847,20.847,0,0,1,43.833-4.9a.3.3,0,0,1-.073-.159q0-.073.22-.22l.623-.378a.591.591,0,0,1,.269-.122q.073,0,.159.122A16.474,16.474,0,0,0,50.572-.928ZM69.954,0H67.9V-7.983H58.846V0H56.795V-17.5h2.051v7.678H67.9V-17.5h2.051ZM87.469,0H85.2L83.343-4.907H75.921L74.175,0H71.893l6.714-17.5H80.73Zm-4.8-6.75-2.747-7.458a7.142,7.142,0,0,1-.269-1.172h-.049a6.538,6.538,0,0,1-.281,1.172L76.6-6.75ZM101.968,0H99.527L96.6-4.907a10.687,10.687,0,0,0-.781-1.166,4.454,4.454,0,0,0-.775-.787,2.685,2.685,0,0,0-.854-.446,3.514,3.514,0,0,0-1.031-.14H91.47V0H89.419V-17.5h5.225a7.446,7.446,0,0,1,2.118.287,4.739,4.739,0,0,1,1.685.873,4.056,4.056,0,0,1,1.117,1.459,4.837,4.837,0,0,1,.4,2.045,4.924,4.924,0,0,1-.275,1.678A4.383,4.383,0,0,1,98.91-9.8,4.736,4.736,0,0,1,97.69-8.783a6.232,6.232,0,0,1-1.605.653v.049a3.692,3.692,0,0,1,.763.446,4.2,4.2,0,0,1,.616.592,7.842,7.842,0,0,1,.58.775q.287.433.641,1.007ZM91.47-15.649V-9.3h2.783a4.221,4.221,0,0,0,1.422-.232A3.292,3.292,0,0,0,96.8-10.2a3.017,3.017,0,0,0,.745-1.062,3.555,3.555,0,0,0,.269-1.41,2.744,2.744,0,0,0-.909-2.191,3.907,3.907,0,0,0-2.631-.787Zm21.506,0h-5.054V0h-2.051V-15.649h-5.042V-17.5h12.146Zm7.358-.171a23.441,23.441,0,0,1-4.6,7.19l-1.428-1.1a21.869,21.869,0,0,0,5.4-10.4l1.978.305q-.256.964-.72,2.344h8.667q-1.172,8.618-4.773,13.135a18.7,18.7,0,0,1-7.9,5.542l-1.1-1.343a17.313,17.313,0,0,0,8.008-5.92,22.467,22.467,0,0,0,3.516-9.753Zm13.918-3.406V-6.97h-1.929V-19.226Zm-.708,18.75q4.517-.964,6.2-3.235,1.6-2.161,1.6-6.543v-9.119h1.929V-10q0,5.408-2.417,7.959-2,2.112-6.409,3.064ZM147.256-17.1h12.427v1.758H147.256ZM145.608-2.673h15.576V-.928H145.608ZM161.688-13.55l1.6-.7A34.156,34.156,0,0,1,165.362-8.8l-1.648.647A30.5,30.5,0,0,0,161.688-13.55Zm4.724-1.074,1.575-.647a32.186,32.186,0,0,1,1.831,5.347l-1.636.7A25.418,25.418,0,0,0,166.412-14.624ZM164.458,0a12.671,12.671,0,0,0,6.7-5.505q1.843-3.162,2.173-9.216l1.831.391q-.513,6.287-2.5,9.753a11.8,11.8,0,0,1-2.991,3.491,18.238,18.238,0,0,1-4.138,2.356Zm16.16-15.82a23.441,23.441,0,0,1-4.6,7.19l-1.428-1.1a21.869,21.869,0,0,0,5.4-10.4l1.978.305q-.256.964-.72,2.344h8.667q-1.172,8.618-4.773,13.135a18.7,18.7,0,0,1-7.9,5.542l-1.1-1.343a17.313,17.313,0,0,0,8.008-5.92,22.467,22.467,0,0,0,3.516-9.753Z" transform="translate(10060.63 -105.889)" fill="#715d51"/>
    <g id="グループ_1508" data-name="グループ 1508" transform="translate(10006 -145)">
      <g id="グループ_1507" data-name="グループ 1507" transform="translate(0 0)" clip-path="url(#clip-path)">
        <path id="パス_75478" data-name="パス 75478" d="M109.4,8.2A8.2,8.2,0,1,1,101.2,0a8.2,8.2,0,0,1,8.2,8.2" transform="translate(-60.899 -0.054)" fill="#e99ea8"/>
        <path id="パス_75479" data-name="パス 75479" d="M35.069,35.391a1.526,1.526,0,0,0-.71,1.153,9.514,9.514,0,0,0,4.012,8.628,2.458,2.458,0,0,1,.012,4.024A9.522,9.522,0,0,0,34.52,58.61a2.452,2.452,0,0,1-2.829,2.845A9.523,9.523,0,0,0,22.3,65.371a2.458,2.458,0,0,1-4.024.012A9.523,9.523,0,0,0,8.858,61.52,2.452,2.452,0,0,1,6.013,58.69,9.521,9.521,0,0,0,2.1,49.3a2.458,2.458,0,0,1-.011-4.024,9.523,9.523,0,0,0,3.863-9.415,2.452,2.452,0,0,1,2.829-2.845A9.521,9.521,0,0,0,18.172,29.1a2.458,2.458,0,0,1,4.024-.011,9.514,9.514,0,0,0,8.712,3.958,1.206,1.206,0,0,0,.978-.705l.1-.215a1.335,1.335,0,0,0-.444-1.674,20.237,20.237,0,1,0,5.357,5.3A1.347,1.347,0,0,0,35.069,35.391Z" transform="translate(-0.344 -17.634)" fill="#e99ea8"/>
        <path id="パス_75480" data-name="パス 75480" d="M86.642,72.542a9.943,9.943,0,0,0,2.251,6.313A.664.664,0,0,0,90.04,78.6,8.461,8.461,0,0,1,93.855,73.5a1.22,1.22,0,0,0,0-2.026,8.426,8.426,0,0,1-3.819-4.993.664.664,0,0,0-1.146-.248,9.942,9.942,0,0,0-2.243,6.3" transform="translate(-56.759 -43.028)" fill="#e99ea8"/>
      </g>
    </g>
  </g>
</svg>
